Patient4_TMGait_0pt4_02_left_23_EMG.mot
version=1
nRows=36
nColumns=33
inDegrees=no
endheader
time	1LAddLong	2LGlutMax	3LGlutMed	4LIliopsoas	5LSemiMemb	6LBicFemLong	7LRecFem	8LVastMed	9LVastLat	10LGasMed	11LTibAnt	12lTibPost	13LPeroneusLong	14LSol	15LExtDigLong	16LFlexDigLong	17RAddLong	18RGlutMax	19RGlutMed	20RIliopsoas	21RSemiMemb	22RBicFemLong	23RRecFem	24RVastMed	25RVastLat	26RGasMed	27RTibAnt	28RTibPost	29RPeroneusLong	30RSol	31RExtDigLong	32RFlexDigLong
30.82	0.014343	-0.031128	-0.022278	0.01236	-0.007019	0.055237	-0.023956	0.002899	-0.009003	-0.019836	-0.036469	0.010986	0.010529	-0.12817	0.94666	0.000763	0.014191	-0.083466	-0.26703	0.2388	-0.056763	0.041656	-0.23193	0.099945	-0.02121	-0.02533	-0.052032	0.054932	0.42801	-0.000763	-0.001831	-0.00061
30.821	0.006409	-0.018005	-0.008087	0.006409	-0.004272	0.048828	-0.023346	0.001221	0.004425	-0.029755	-0.030365	0.006104	0.010376	-0.13123	-0.29587	0.003967	0.028381	-0.073242	-0.24735	0.065613	-0.057983	0.016022	-0.012512	0.062103	0.031738	0.007324	-0.065613	0.22675	0.13779	-0.12085	-0.002441	0.008087
30.822	0.009155	-0.015411	0.001831	0.023041	-0.009918	0.063171	-0.021973	0.000305	0.020294	-0.020142	-0.079346	0.006561	0.037689	-0.1236	-0.41412	0.001831	0.018311	-0.11856	-0.041656	-0.04837	-0.075989	0.010986	-0.013733	-0.0383	-0.003357	0.04837	-0.060425	-0.050812	0.061188	-0.28076	-0.001373	-0.006561
30.823	0.006866	-0.014801	0.026245	0.000305	-0.007629	0.040894	-0.026093	0.00473	0.046844	-0.019531	-0.058289	-0.000153	0.055237	-0.06073	-0.3183	0.002136	-0.02594	-0.12726	0.30151	-0.025482	-0.18997	0.053558	-0.13123	-0.047302	0.016479	0.032043	-0.025787	-0.22324	0.11719	-0.36758	0.005493	-0.00824
30.824	0.007629	-0.033417	-0.004883	0.016937	-0.016327	0.063324	-0.022888	0.00824	0.065765	-0.010529	-0.059967	0.002136	0.036926	-0.06134	-0.12161	-0.003052	-0.02243	0.008698	-0.29968	0.056	-0.13107	0.018463	-0.19836	0.017395	0.05188	0.00473	-0.012665	-0.018158	0.080566	-0.42191	-0.003357	-0.011292
30.825	0.014496	-0.068512	-0.03418	0.002899	-0.012817	0.030975	-0.021667	-0.006104	0.072937	0.003052	-0.027924	0.002594	-0.014191	-0.052185	0.1355	0.000153	-0.01709	-0.051727	-0.33707	0.050812	0.034485	-0.008698	-0.050507	0.065613	0.066986	-0.002747	-0.021515	0.20432	0.029144	-0.47607	-0.00351	-0.021515
30.826	0.010376	-0.094147	-0.018311	-0.011292	-0.015717	0.027924	-0.063324	-0.005951	0.095215	0.005646	0.002289	-0.000458	-0.037994	-0.082397	0.12253	0.003967	-0.00885	-0.15808	0.073547	0.14282	0.15076	-0.012512	0.093842	0.093536	0.00824	-0.004883	-0.00885	0.11185	-0.003815	-0.22598	-0.003052	-0.010986
30.827	0.010986	-0.058594	-0.020142	-0.004272	-0.020294	0.043182	-0.033569	0.000763	0.1004	-0.016479	0.035706	0.002594	0.016479	-0.083923	-0.042725	0.016479	0.010376	-0.099792	0.70572	0.089874	0.11932	-0.032959	0.17624	0.042572	-0.019684	-0.031128	0.019989	0.048065	-0.062408	0.50537	-0.002289	-0.005188
30.828	0.007019	-0.079498	0.000916	0.00061	-0.020142	0.021515	-0.028839	0.002899	0.10788	-0.020294	0.079498	0.000153	0.049591	-0.07019	-0.1004	0.005646	0.005493	-0.032501	0.63858	-0.068817	0.067139	-0.008392	0.17212	0.005035	-0.046082	-0.027618	0.022583	0.016022	-0.086975	0.73288	-0.001678	-0.007935
30.829	0.011597	-0.061493	0.038757	-0.015411	-0.016174	0.014038	-0.015106	0.009003	0.11261	-0.019531	0.068817	0.003967	0.037842	-0.05722	-0.021057	0.002594	0.009003	-0.033417	-0.068512	-0.036163	0.043793	0.010223	0.1503	0.000763	-0.062714	-0.010834	0.016937	0.019684	-0.087128	0.30106	0.000763	-0.000458
30.83	0.006104	-0.093689	-0.020294	0.002747	-0.020447	0.023499	-0.044556	0.001068	0.12421	-0.031128	0.024414	0.002899	0.039978	-0.039063	0.019379	0.007477	0.003204	-0.032654	-0.017548	0.070648	0.02121	0.005646	0.00473	-0.043793	-0.087738	0.004578	-0.012207	0.023041	-0.026245	-0.031128	0.000458	-0.012054
30.831	0.00824	-0.094147	-0.048218	-0.008545	-0.019836	0.010986	-0.039673	-0.003815	0.13367	-0.028992	-0.18188	0.002747	0.033112	-0.01297	-0.017548	0.002441	0.00473	0.034943	0.14801	0.078583	0.007629	0.043182	-0.12528	-0.095978	-0.08728	0.004425	-0.017395	0.001221	-0.041656	0.036469	0.000305	-0.00885
30.832	0.009003	-0.095062	-0.076141	0.003967	-0.028839	0.005493	-0.049591	0.001221	0.13092	-0.001526	-0.014801	0.002594	-0.023804	-0.016022	0.30792	-0.003967	-0.001831	0.00473	0.22232	0.033875	0.00061	0.025482	-0.27466	-0.10529	-0.041962	0.003662	-0.011749	-0.011292	-0.050201	0.4538	0.000763	0.003967
30.833	0.010986	-0.067596	-0.085754	0.00061	-0.027008	0.012207	-0.033417	-0.004272	0.12177	0.006714	0.053558	0.004425	-0.033417	-0.073395	-0.035248	0.000458	0.000458	0.026703	0.29694	-0.004883	0.026245	0.020142	-0.20248	-0.029144	0.088959	-0.000458	-0.011902	-0.011749	-0.018005	0.30289	-0.002899	-0.005188
30.834	0.010071	-0.046082	-0.10178	-0.00061	-0.016479	0.009766	-0.014038	-0.000305	0.1297	-0.010071	-0.11368	-0.002899	-0.026093	-0.054016	0.014038	0.00351	0.011444	0.06073	0.095215	-0.049286	0.023956	0.029449	-0.17609	0.026245	0.016479	-0.00061	-0.020142	-0.021057	0.001068	-0.000153	-0.002136	-0.004272
30.835	0.00473	-0.046234	-0.10162	0.004425	-0.015259	0.01358	-0.032501	0.003815	0.14343	-0.028992	-0.044861	0.001678	-0.036163	-0.032806	0.099182	0.00473	-0.006714	0.080872	0.082092	-0.025787	0.04776	0.041351	-0.067749	-0.026245	-0.049286	0.002136	-0.019684	-0.021973	0.10132	-0.098877	-0.002899	-0.001526
30.836	0.009766	-0.036316	-0.052948	-0.00351	-0.018768	-0.00412	-0.015869	-0.036774	0.16022	-0.019226	-0.038452	-0.00946	0.022583	-0.055542	0.25177	0.005951	0.00473	0.088501	0.41916	-0.006409	0.033569	0.006104	-0.029602	0.013885	0.033569	-0.006866	-0.00885	-0.02655	0.097961	-0.085602	-0.001831	0.000763
30.837	0.009613	-0.042572	0.040436	-0.002136	-0.011292	-0.002136	-0.015106	-0.016632	0.18265	-0.028229	0.070953	0.001678	0.08667	-0.035553	-0.30487	0.012054	0.003967	0.066833	0.23758	0.006714	0.018005	0.023804	-0.014954	0.034027	0.094147	0.000763	-0.02182	-0.025787	0.14221	0.058136	-0.003662	-0.000916
30.838	0.012665	-0.023956	0.046539	-0.001068	-0.014801	0.023499	-0.012054	-0.014343	0.18127	-0.036926	0.097961	0.005951	0.11765	-0.057831	-0.22476	0.001373	0.004578	0.066986	0.19867	0.023804	-0.009613	0.014648	-0.057983	0.025482	0.068817	0.00412	0.011444	-0.022583	0.093231	0.087585	-0.002441	-0.007782
30.839	0.016632	0.007782	0.035248	-0.006866	-0.024109	0.020447	-0.018463	0.008545	0.18143	-0.014343	-0.023651	0.003967	0.06546	-0.095673	-0.19211	-0.001221	0.003052	0.027008	0.78095	-0.072327	0.014038	0.011597	-0.007172	0.032654	0.1004	0.002747	0.029602	-0.018768	-0.27405	0.057373	-0.00412	-0.013123
30.84	0.006256	-0.00061	-0.00412	0.009155	-0.022583	0.018768	-0.011292	0.005646	0.17838	-0.007324	-0.058441	0.003204	0.042267	-0.11948	-0.31921	-0.01236	0.018921	0.030518	0.81665	-0.049896	-0.003052	0.007324	0.088654	-0.079498	0.05661	0.011597	0.021515	-0.014801	-0.43991	-0.015259	-0.001373	-0.016937
30.841	0.009766	0.0177	-0.017395	-0.002136	-0.014343	0.022278	-0.010223	0.006866	0.1712	-0.007324	-0.010223	0.002136	0.027771	-0.14038	-0.22095	0.008545	0.029144	-0.016785	0.67642	-0.010223	-0.014191	-0.003967	0.12558	-0.025177	0.010834	0.007324	0.011597	-0.06958	-0.11246	-0.092468	-0.00412	-0.010223
30.842	0	0.003967	-0.004425	0.010071	-0.005035	0.054321	0.012207	0.000305	0.16388	-0.016022	0.003204	-0.016327	-0.012817	-0.12299	-0.028687	0.014191	0.015717	0.04303	-0.021362	-0.022125	-0.032959	0.000153	0.15152	-0.010986	-0.031586	0.002747	-0.007477	-0.00885	0.065765	-0.112	-0.005951	-0.014954
30.843	0.001984	0.044861	0.010071	0.010834	-0.011902	0.064392	0.012512	0.010529	0.16159	-0.009155	0.004883	-0.000458	0.01297	-0.079956	0.077667	-0.006256	0.016479	0.054016	-0.26199	-0.059052	-0.048828	0.020294	0.15274	-0.055237	-0.024719	-0.014343	-0.022583	0.046387	0.15778	-0.091553	-0.002747	-0.015259
30.844	0.004425	0.033112	0.002747	-0.003052	-0.018921	0.050354	0.021362	0.006866	0.17975	-0.02533	-0.016632	-0.009155	0.045929	-0.076294	0.12375	0.008392	0.016479	-0.020599	0.017548	-0.010681	-0.045166	-0.006409	0.060883	-0.033417	0.016937	-0.009155	-0.020447	0.004425	0.29282	0.12955	-0.001526	-0.011292
30.845	0.006104	0.052643	-0.034027	0.006866	-0.067444	0.010071	0.011139	-0.000458	0.18692	-0.037231	-0.001831	0	0.060425	-0.1062	0.16235	0.002289	0.004883	-0.0383	-0.3949	0.037842	0.068207	-0.018158	0.016022	-0.005188	0.055084	-0.010223	-0.000763	-0.005646	0.11185	0.13886	-0.004883	-0.011292
30.846	0.011597	0.036774	-0.046844	0.001221	-0.046082	-0.016937	0.003357	0.000305	0.18707	-0.029907	0.009918	0.001831	0.063782	-0.10651	0.13641	0.001373	-0.008545	0.006561	-0.26932	0.029449	-0.007935	0.00061	-0.034027	0.092316	0.094147	-0.006104	0.010986	-0.002289	0.027161	0.056915	-0.002136	-0.000916
30.847	0.012817	0.058899	-0.025024	0.00351	-0.02121	-0.050049	-0.001373	0.003357	0.18539	-0.029449	0.006714	0.000458	0.033722	-0.079956	0.082397	0.001221	0	0.048065	-0.20844	0.038757	-0.002899	-0.019073	0.016174	-0.006104	0.070953	-0.010376	0.041046	-0.003815	-0.062256	-0.021515	0.000916	-0.005341
30.848	0.009308	0.060272	0.011139	0.002899	-0.005341	-0.034637	0.016327	0.005341	0.19363	-0.015259	0.041504	-0.001678	0.028992	-0.088959	0.042114	-0.001068	0.000763	0.051575	-0.071411	0.025177	0.004425	-0.012817	-0.071259	-0.054932	0.063171	-0.004425	0.000916	-0.005798	-0.055084	0.007629	-0.002594	0.001373
30.849	0.013733	0.071259	0.04364	0.004883	0.002594	-0.012512	0.039978	-0.000916	0.19455	-0.025787	0.053101	-0.000458	0.031433	-0.06897	0.045471	0.001526	-0.000763	0.073242	0.298	0.004578	0.007629	-0.016937	-0.098572	-0.063171	0.072479	0	0.012512	-0.011139	-0.026703	0.004883	0.001526	-0.001526
30.85	0.014954	0.10376	-0.003662	0.005341	-0.002899	-0.024872	0.019836	-0.001373	0.18799	-0.035706	-0.018311	0.000763	0.046997	-0.065155	0.085144	0.000305	0.005646	0.080872	0.85297	-0.040588	0	-0.007629	-0.27069	-0.077057	0.019226	0.001984	0.026245	-0.009155	-0.010223	0.010529	0.000763	-0.002594
30.851	0.005951	0.13458	-0.028534	0.010986	-0.011597	-0.023651	0.022888	0.000458	0.18158	-0.032806	-0.007935	0.000763	0.058136	-0.054626	0.040283	0.019836	0.003662	0.094147	0.41153	0.013123	-0.021973	-0.001221	-0.24597	-0.056458	-0.045624	-0.001068	0.001984	-0.015259	0.068665	0.021515	-0.005188	0.001984
30.852	0.005951	0.1445	-0.037842	-0.00824	0.015259	-0.029907	0.045319	0.001831	0.17151	-0.028839	0.067902	0.002289	0.017548	-0.047302	0.005341	0.003815	0.023193	0.053101	0.12558	-0.005646	-0.043182	-0.02243	-0.029907	-0.010376	-0.056915	0.001984	-0.021515	-0.014038	0.080872	0.043945	-0.004272	-0.000305
30.853	0.00824	0.16388	-0.028992	0.002747	-0.013428	-0.006409	0.049286	0.007935	0.15549	-0.013885	0.036163	-0.008392	0.02594	-0.069885	-0.004578	0.005188	0.037079	0.014038	0.06134	-0.090332	0.003204	-0.053864	0.072479	0.033569	-0.044403	0.002441	-0.055237	0.004578	0.09491	0.050507	0.001831	0.000916
30.854	-0.004272	0.15076	-0.080414	0.004272	-0.008698	-0.01297	0.054779	-0.000763	0.15564	-0.016937	0.01358	-0.005341	0.005798	-0.065613	-0.057068	-0.00351	0.047302	-0.065613	0.019073	-0.028687	0.19379	-0.087585	0.10971	0.039825	0.002594	0.000305	-0.043945	0.007477	0.031738	0.041809	-0.005493	-0.008392
30.855	0.00946	0.14252	-0.031128	-0.003967	-0.011139	-0.047455	0.048065	0.004883	0.15717	-0.021667	-0.015106	-0.002899	-0.00412	-0.084839	0.070801	-0.003662	0.079346	-0.049591	-0.27573	0.036469	0.14984	-0.071869	0.1532	-0.12192	0.071259	-0.014954	0.001678	-0.000763	-0.018158	-0.001221	-0.002899	-0.005798
